<svg id="K_" data-name="K +" xmlns="http://www.w3.org/2000/svg" width="31.81" height="17.929" viewBox="0 0 31.81 17.929">
  <g id="Group_808" data-name="Group 808" transform="translate(6.601 0.122)">
    <path id="Path_20386" data-name="Path 20386" d="M1501.664,1224.672l-7.075,8.864,6.74,8.91c-1.756-.1-3.348.247-4.875-.262a3.373,3.373,0,0,1-1.451-1.129c-1.913-2.453-3.771-4.95-5.683-7.478.821-1.055,1.637-2.113,2.464-3.162,1.108-1.407,2.242-2.793,3.331-4.214a3.637,3.637,0,0,1,3.182-1.535C1499.343,1224.7,1500.39,1224.672,1501.664,1224.672Z" transform="translate(-1489.32 -1224.663)" fill="#4a4b4f"/>
  </g>
  <path id="Union_1" data-name="Union 1" d="M5.286,11.25a1,1,0,0,1-1-1V6.964H1a1,1,0,0,1-1-1V5.286a1,1,0,0,1,1-1H4.286V1a1,1,0,0,1,1-1h.679a1,1,0,0,1,1,1V4.286H10.25a1,1,0,0,1,1,1v.679a1,1,0,0,1-1,1H6.964V10.25a1,1,0,0,1-1,1Z" transform="translate(20.56 6.595)" fill="#4a4b4f"/>
  <rect id="Rectangle_436" data-name="Rectangle 436" width="4.267" height="17.844" rx="1" fill="#4a4b4f"/>
</svg>
