<svg xmlns="http://www.w3.org/2000/svg" width="103.343" height="31.049" viewBox="0 0 103.343 31.049">
  <g id="Loveandaman_logo" data-name="Loveandaman logo" transform="translate(-173.466)">
    <g id="Group_785" data-name="Group 785" transform="translate(173.466 0)">
      <g id="Group_769" data-name="Group 769" transform="translate(0 0)">
        <g id="Group_767" data-name="Group 767" transform="translate(45.179 2.009)">
          <path id="Path_20352" data-name="Path 20352" d="M238.477,488.158a2.543,2.543,0,0,0-2.874,2.873v3.954h1.716v-4.3c.013-.7.394-1.042,1.145-1.042h.027c.75,0,1.132.343,1.145,1.042v3.439a.858.858,0,0,0,.858.858h.858v-3.954A2.543,2.543,0,0,0,238.477,488.158Z" transform="translate(-227.578 -466.061)" fill="#5e5c5c"/>
          <path id="Path_20353" data-name="Path 20353" d="M303.4,488.158a3.066,3.066,0,0,0-2.025.607,3.066,3.066,0,0,0-2.025-.607,2.543,2.543,0,0,0-2.874,2.873v3.954h1.716v-4.3c.013-.7.394-1.042,1.145-1.042h.022c.755,0,1.137.343,1.149,1.042v4.3h1.735v-4.3c.013-.7.394-1.042,1.145-1.042h.027c.75,0,1.132.343,1.145,1.042v3.439a.858.858,0,0,0,.858.858h.858v-3.954A2.543,2.543,0,0,0,303.4,488.158Z" transform="translate(-263.883 -466.061)" fill="#5e5c5c"/>
          <path id="Path_20354" data-name="Path 20354" d="M348.465,488.158a2.543,2.543,0,0,0-2.874,2.873v3.954h1.716v-4.3c.013-.7.394-1.042,1.144-1.042h.027c.75,0,1.132.343,1.144,1.042v3.439a.859.859,0,0,0,.859.858h.858v-3.954A2.543,2.543,0,0,0,348.465,488.158Z" transform="translate(-293.175 -466.061)" fill="#5e5c5c"/>
          <path id="Path_20355" data-name="Path 20355" d="M221.064,489.043a2.79,2.79,0,0,0-2.321-.859s-2.6-.108-2.843,1.857h1.686s.167-.51,1.114-.51c0,0,.862.007,1.012.51,0,0,.121.479-.494.644l-2.361.613a1.55,1.55,0,0,0-1.132,1.564,2.065,2.065,0,0,0,1.164,2.059,4.024,4.024,0,0,0,1.344.195,5.246,5.246,0,0,0,.923-.087,2.24,2.24,0,0,0,.868-.4s.082.254.27.316a1.4,1.4,0,0,0,.436.066h.657V490.2A2.088,2.088,0,0,0,221.064,489.043Zm-1.379,3.823a1.4,1.4,0,0,1-1.333,1,.967.967,0,0,1-1.044-.855.477.477,0,0,1,.314-.594l2.128-.623A2.444,2.444,0,0,1,219.685,492.866Z" transform="translate(-215.72 -466.075)" fill="#5e5c5c"/>
          <path id="Path_20356" data-name="Path 20356" d="M281.272,489.043a2.79,2.79,0,0,0-2.321-.859s-2.6-.108-2.842,1.857h1.686s.167-.51,1.114-.51c0,0,.862.007,1.012.51,0,0,.121.479-.495.644l-2.361.613a1.55,1.55,0,0,0-1.132,1.564,2.065,2.065,0,0,0,1.164,2.059,4.024,4.024,0,0,0,1.344.195,5.249,5.249,0,0,0,.923-.087,2.245,2.245,0,0,0,.868-.4s.082.254.27.316a1.406,1.406,0,0,0,.436.066h.657V490.2A2.088,2.088,0,0,0,281.272,489.043Zm-1.379,3.823a1.4,1.4,0,0,1-1.333,1,.967.967,0,0,1-1.044-.855.477.477,0,0,1,.314-.594l2.128-.623A2.444,2.444,0,0,1,279.893,492.866Z" transform="translate(-251.628 -466.075)" fill="#5e5c5c"/>
          <path id="Path_20357" data-name="Path 20357" d="M331.133,489.043a2.791,2.791,0,0,0-2.322-.859s-2.6-.108-2.843,1.857h1.686s.167-.51,1.114-.51c0,0,.862.007,1.012.51,0,0,.121.479-.495.644l-2.361.613a1.55,1.55,0,0,0-1.132,1.564,2.064,2.064,0,0,0,1.164,2.059,4.023,4.023,0,0,0,1.344.195,5.248,5.248,0,0,0,.923-.087,2.245,2.245,0,0,0,.868-.4s.082.254.27.316a1.406,1.406,0,0,0,.436.066h.656V490.2A2.087,2.087,0,0,0,331.133,489.043Zm-1.379,3.823a1.4,1.4,0,0,1-1.333,1,.967.967,0,0,1-1.044-.855.476.476,0,0,1,.313-.594l2.128-.623A2.443,2.443,0,0,1,329.754,492.866Z" transform="translate(-281.365 -466.075)" fill="#5e5c5c"/>
          <path id="Path_20358" data-name="Path 20358" d="M260.413,481.915h-.975v3a2.8,2.8,0,0,0-1.56-.468,3.082,3.082,0,0,0-.938.134,2.662,2.662,0,0,0-.752.373,2.625,2.625,0,0,0-.572.564,3.318,3.318,0,0,0-.395.7,3.761,3.761,0,0,0-.23.789,4.709,4.709,0,0,0-.074.827,5.2,5.2,0,0,0,.163,1.321,3.061,3.061,0,0,0,.524,1.095,2.5,2.5,0,0,0,.936.741,3.236,3.236,0,0,0,1.379.268,2.119,2.119,0,0,0,1-.228,2.586,2.586,0,0,0,.551-.4.847.847,0,0,0,.819.636h.88v-8.592A.754.754,0,0,0,260.413,481.915Zm-1.291,7.27a1.4,1.4,0,0,1-.452.458,1.279,1.279,0,0,1-.689.174,1.3,1.3,0,0,1-.666-.161,1.416,1.416,0,0,1-.453-.419,1.843,1.843,0,0,1-.263-.582,2.535,2.535,0,0,1-.086-.644,4.171,4.171,0,0,1,.08-.825,2.121,2.121,0,0,1,.255-.679,1.331,1.331,0,0,1,.451-.456,1.449,1.449,0,0,1,1.33-.013,1.369,1.369,0,0,1,.457.418,1.974,1.974,0,0,1,.276.616,2.822,2.822,0,0,1,.077.494v.522a3.521,3.521,0,0,1-.063.451A2.082,2.082,0,0,1,259.122,489.185Z" transform="translate(-239.097 -462.338)" fill="#5e5c5c"/>
          <path id="Path_20359" data-name="Path 20359" d="M329.676,451.013v-15.05a1.754,1.754,0,0,1,1.764-1.76H341.83v1.126a1.769,1.769,0,0,1-1.489,1.757h-7.312v3.836h8.782v1.124a1.757,1.757,0,0,1-1.763,1.76h-7.019v4.08h8.818v1.368a1.752,1.752,0,0,1-1.764,1.76Z" transform="translate(-283.684 -433.882)" fill="#5e5c5c"/>
          <path id="Path_20360" data-name="Path 20360" d="M251.638,433.408a7.879,7.879,0,0,0-5.928,2.361,9.205,9.205,0,0,0-2.121,6.377,9.036,9.036,0,0,0,2.122,6.331,7.777,7.777,0,0,0,5.927,2.312,7.87,7.87,0,0,0,5.928-2.313,9.011,9.011,0,0,0,2.169-6.33,9.2,9.2,0,0,0-2.172-6.381A7.982,7.982,0,0,0,251.638,433.408Zm-3.261,4.612a3.971,3.971,0,0,1,3.261-1.415,4.055,4.055,0,0,1,3.26,1.415,6.512,6.512,0,0,1,1.2,4.126,6.289,6.289,0,0,1-1.2,4.072,4.051,4.051,0,0,1-3.263,1.419,3.966,3.966,0,0,1-3.262-1.419,6.243,6.243,0,0,1-1.153-4.072A6.461,6.461,0,0,1,248.377,438.02Z" transform="translate(-232.341 -433.408)" fill="#5e5c5c"/>
          <path id="Path_20361" data-name="Path 20361" d="M219.336,434.2h-1.712a1.827,1.827,0,0,0-1.838,1.834v13.211a1.828,1.828,0,0,0,1.838,1.831H224.9a1.828,1.828,0,0,0,1.839-1.834V447.8h-7.405Z" transform="translate(-215.759 -433.882)" fill="#5e5c5c"/>
          <path id="Path_20362" data-name="Path 20362" d="M292.254,451.389a2.631,2.631,0,0,0,2.442-1.682l6.067-15.161h-.009l.009-.023h-2.518a2.005,2.005,0,0,0-1.859,1.253L292.169,446.4l-4.218-10.624a2,2,0,0,0-1.858-1.253h-2.518l.009.023h-.009l6.067,15.161a2.631,2.631,0,0,0,2.442,1.682Z" transform="translate(-256.189 -434.073)" fill="#5e5c5c"/>
        </g>
        <g id="Group_768" data-name="Group 768">
          <path id="Path_20363" data-name="Path 20363" d="M165.157,435.662v.007l2.877,2.874c-.262-4.091-1.009-10.065-2.864-10.1h-.014a1.715,1.715,0,0,0-1.306.632l-6.431,6.411s-.029.028-.072.066Z" transform="translate(-135.728 -428.44)" fill="#5e5c5c"/>
          <path id="Path_20364" data-name="Path 20364" d="M168.626,441.619h0v.005l-11.571,11.546c3.963-1.7,13.846-6.131,17.379-9.441h0l0,0a3.515,3.515,0,0,0,1.369-2.107,2.316,2.316,0,0,0-.771-1.5l-7.811-7.791C168.442,435.473,168.584,440.817,168.626,441.619Z" transform="translate(-135.554 -430.757)" fill="#5e5c5c"/>
          <path id="Path_20365" data-name="Path 20365" d="M142.32,441.034c1.67,3.939,2.981,7.89,3.139,8.371l8.564-8.543-8.6-.117h0a2.541,2.541,0,0,1-1.55-.793l-4-3.985A50.244,50.244,0,0,1,142.32,441.034Z" transform="translate(-125.306 -432.924)" fill="#5e5c5c"/>
          <path id="Path_20366" data-name="Path 20366" d="M136.358,470.1l-.006-.013-11.7-11.664a89.919,89.919,0,0,0,4.093,8.583c4.567,8.267,6.648,10.091,7.517,10.213.031,0,.063.007.094.007a2.159,2.159,0,0,0,1.5-.735l14.009-13.971A136.025,136.025,0,0,1,136.358,470.1Z" transform="translate(-116.23 -446.32)" fill="#5e5c5c"/>
          <path id="Path_20367" data-name="Path 20367" d="M116.5,435.584v.008l8.211,8.189c-.548-1.578-1.518-4.268-2.656-6.952-1.653-3.885-3.117-6.5-4.351-7.762a2.294,2.294,0,0,0-.889-.593,1.289,1.289,0,0,0-.316-.043,2.036,2.036,0,0,0-1.41.665L107,437.156C108.851,436.352,111.955,435.843,116.5,435.584Z" transform="translate(-105.703 -428.43)" fill="#5e5c5c"/>
          <path id="Path_20368" data-name="Path 20368" d="M110.906,450.968h0l0,0v0h0l.013-.006,2.884-2.874c-5.288.354-8.571,1.112-9.685,2.25a1.155,1.155,0,0,0-.331.653.906.906,0,0,0,0,.219,2.535,2.535,0,0,0,.739,1.3l14.655,14.616C115.489,461.426,111.551,452.376,110.906,450.968Z" transform="translate(-103.781 -440.149)" fill="#5e5c5c"/>
        </g>
      </g>
    </g>
  </g>
</svg>
