<svg id="Master" xmlns="http://www.w3.org/2000/svg" width="31.863" height="31.863" viewBox="0 0 31.863 31.863">
  <g id="invisible_box" data-name="invisible box" transform="translate(0 0)">
    <rect id="Rectangle_438" data-name="Rectangle 438" width="31.863" height="31.863" fill="none"/>
  </g>
  <g id="Icons" transform="translate(1.394 5.313)">
    <g id="Group_814" data-name="Group 814">
      <path id="Path_20403" data-name="Path 20403" d="M29.212,8H3.991A1.925,1.925,0,0,0,2,9.991V27.247a1.925,1.925,0,0,0,1.991,1.991H29.212A1.925,1.925,0,0,0,31.2,27.247V9.991A1.925,1.925,0,0,0,29.212,8Zm-.664,18.584H4.654V10.654H28.548Z" transform="translate(-1.998 -7.998)" fill="#4a4b4f"/>
      <path id="Path_20404" data-name="Path 20404" d="M16.154,26.783a5.642,5.642,0,0,0,3.319-1.062,5.841,5.841,0,0,0,3.319,1.062,5.642,5.642,0,1,0,0-11.283,5.841,5.841,0,0,0-3.319,1.062,5.642,5.642,0,1,0-3.319,10.221Zm10.288-5.642a3.65,3.65,0,0,1-3.65,3.65,3.982,3.982,0,0,1-1.925-.531,5.708,5.708,0,0,0,0-6.239,3.982,3.982,0,0,1,1.925-.531,3.65,3.65,0,0,1,3.65,3.65Zm-10.288-3.65a3.65,3.65,0,1,1-3.65,3.65A3.65,3.65,0,0,1,16.154,17.491Z" transform="translate(-4.869 -10.521)" fill="#4a4b4f"/>
    </g>
  </g>
</svg>
