<svg id="Rabbit" xmlns="http://www.w3.org/2000/svg" width="96.612" height="18.018" viewBox="0 0 96.612 18.018">
  <g id="Group_812" data-name="Group 812" transform="translate(0)">
    <path id="Path_20388" data-name="Path 20388" d="M2569.606,659.288q-19.571,0-39.143,0a9.015,9.015,0,0,1-9.191-8.357,9.025,9.025,0,0,1,7.766-9.517,13.473,13.473,0,0,1,1.812-.136q38.882-.01,77.764,0a9.025,9.025,0,0,1,5.846,1.928,8.563,8.563,0,0,1,3.29,5.636,8.825,8.825,0,0,1-3.551,8.69,8.02,8.02,0,0,1-4.561,1.695c-.816.045-1.634.065-2.451.065Q2588.4,659.291,2569.606,659.288Zm-.994-1.348.044-.1a8.412,8.412,0,0,1-4.542-7.6,8.568,8.568,0,0,1,4.5-7.642,1.35,1.35,0,0,0-.425-.049q-18.713.007-37.427.02a10.564,10.564,0,0,0-1.477.125,7.79,7.79,0,0,0-6.721,8.294,7.734,7.734,0,0,0,7.856,7.009q9.077-.02,18.155-.048,9.785-.014,19.569-.007Zm13.629-8.36c.111.142.18.224.243.311.792,1.079,1.62,2.134,2.359,3.248a1.486,1.486,0,0,0,1.577.794c.467-.062.509-.047.509-.519q0-2.883,0-5.765c0-1.081,0-1.081-1.074-1.048-.517.016-.6.1-.607.615,0,1.079,0,2.157,0,3.236,0,.115-.013.23-.026.428-.937-1.267-1.844-2.445-2.691-3.664a1.2,1.2,0,0,0-1.264-.616,1.47,1.47,0,0,1-.149,0c-.474.021-.563.105-.564.579q0,3.087,0,6.174c0,.5.074.564.555.566h.521c.6,0,.612-.01.612-.6C2582.241,652.1,2582.241,650.877,2582.241,649.58Zm5.773.693c0,1.017,0,2.034,0,3.051,0,.54.066.6.594.6,1.079,0,2.158,0,3.237,0,1.171-.006,1.11.179,1.1-1.129,0-.438-.113-.553-.55-.557-.657-.007-1.315,0-1.972,0-.741,0-.731,0-.712-.732.007-.271.108-.377.378-.373.57.01,1.141,0,1.711,0,1.3.006,1.137,0,1.144-1.153,0-.442-.108-.556-.545-.561-.657-.009-1.314,0-1.972,0-.742,0-.732,0-.717-.732.006-.273.106-.373.376-.368.607.012,1.216,0,1.823,0,1.039,0,1.039,0,1.036-1.043,0-.592-.07-.67-.656-.673q-1.823-.009-3.646,0c-.56,0-.632.08-.634.658C2588.011,648.263,2588.014,649.268,2588.014,650.273Zm7.557.008c0,1.065.006,2.13,0,3.2,0,.31.1.466.43.449a8.015,8.015,0,0,1,.817,0c.308.016.43-.147.437-.423.009-.322.015-.644,0-.966-.009-.251.081-.36.342-.356a8.238,8.238,0,0,0,.851-.043,2.693,2.693,0,0,0,2.5-2.664,2.584,2.584,0,0,0-2.043-2.733,19.453,19.453,0,0,0-3.029-.112c-.258,0-.3.2-.3.42C2595.574,648.125,2595.572,649.2,2595.572,650.28Zm8.984-.144c-.543,0-1.038-.009-1.531,0a1.931,1.931,0,0,0-1.867,1.93,1.885,1.885,0,0,0,1.889,1.853c.831,0,1.662-.008,2.493.005.348.006.509-.142.509-.48,0-1.054.029-2.109-.013-3.162a2.071,2.071,0,0,0-1.4-2.072,4.755,4.755,0,0,0-2.671.017c-.095.022-.249.14-.241.2a3.388,3.388,0,0,0,.219,1.025c.053.112.41.108.628.11.49,0,.98-.052,1.468-.024C2604.319,649.553,2604.516,649.756,2604.555,650.136Zm4.585.691c-.268-.669-.494-1.254-.736-1.833-.4-.953-.167-.934-1.389-.922-.581.006-.686.164-.47.707.516,1.3,1.031,2.6,1.561,3.893a.77.77,0,0,1-.009.668c-.231.507-.437,1.024-.647,1.541-.167.413-.1.521.334.526.285,0,.571-.013.855,0a.463.463,0,0,0,.505-.341c.175-.437.361-.869.543-1.3q1.076-2.57,2.15-5.139c.169-.405.08-.542-.365-.557-.223-.008-.447.011-.669,0a.652.652,0,0,0-.721.5C2609.8,649.3,2609.48,650.018,2609.14,650.827Zm-37.158-.546c0,1.066,0,2.133,0,3.2,0,.256.067.441.369.441q2.083,0,4.166,0a.318.318,0,0,0,.366-.362c0-.26,0-.521,0-.781,0-.451-.088-.541-.544-.545-.719-.005-1.438,0-2.157,0-.5,0-.5,0-.5-.513,0-1.525-.006-3.05,0-4.575,0-.353-.128-.541-.491-.538l-.744,0c-.344,0-.473.166-.469.512C2571.991,648.174,2571.981,649.228,2571.982,650.282Zm7.5.035v-2.677c0-1.078,0-1.078-1.093-1.039-.519.019-.6.1-.6.618q0,2.175,0,4.35c0,.583,0,1.165,0,1.748,0,.546.06.6.588.606.211,0,.422-.013.632,0,.359.026.481-.138.478-.485C2579.479,652.4,2579.486,651.358,2579.486,650.317Z" transform="translate(-2521.245 -641.27)" fill="#4a4b4f"/>
    <path id="Path_20389" data-name="Path 20389" d="M2789.036,707.063a8.088,8.088,0,0,1,1.25-.531,2.492,2.492,0,0,1,2.377.731,3.018,3.018,0,0,1,.694,3.32,2.954,2.954,0,0,1-2.73,1.841,2.865,2.865,0,0,1-3.012-2.588,6.811,6.811,0,0,1-.065-.886c-.006-1.475.011-2.951-.012-4.426-.006-.389.118-.511.487-.466a3.262,3.262,0,0,0,.632,0c.265-.02.348.1.345.348-.009.731,0,1.463,0,2.194C2789,706.746,2789.022,706.889,2789.036,707.063Zm1.517.88a1.518,1.518,0,0,0-1.5,1.522,1.514,1.514,0,1,0,3.027-.033A1.511,1.511,0,0,0,2790.553,707.943Z" transform="translate(-2767.707 -699.374)" fill="#4a4b4f"/>
    <path id="Path_20390" data-name="Path 20390" d="M2880.51,707.143a3.077,3.077,0,0,0,.348-.169,2.717,2.717,0,0,1,4.113,1.773,2.976,2.976,0,0,1-2.31,3.679A2.9,2.9,0,0,1,2879.1,710a4.4,4.4,0,0,1-.051-.852c0-1.524.006-3.047-.008-4.571,0-.342.077-.482.453-.475,1.011.021,1.011,0,1.011,1.014Zm3.041,2.355a1.489,1.489,0,0,0-1.5-1.5,1.516,1.516,0,0,0-1.509,1.509,1.547,1.547,0,0,0,1.514,1.521A1.519,1.519,0,0,0,2883.551,709.5Z" transform="translate(-2852.399 -699.426)" fill="#4a4b4f"/>
    <path id="Path_20391" data-name="Path 20391" d="M2699.439,741.875a2.986,2.986,0,0,0-.349.209,2.578,2.578,0,0,1-3.749-.83,3,3,0,0,1,2.192-4.6,2.907,2.907,0,0,1,3.361,2.87c.044.852,0,1.709.014,2.563,0,.271-.108.351-.354.333a4.728,4.728,0,0,0-.482,0C2699.734,742.432,2699.36,742.5,2699.439,741.875Zm-1.551-3.781a1.524,1.524,0,0,0-1.51,1.513,1.563,1.563,0,0,0,1.524,1.516,1.542,1.542,0,0,0,1.5-1.53A1.5,1.5,0,0,0,2697.888,738.095Z" transform="translate(-2681.945 -729.526)" fill="#4a4b4f"/>
    <path id="Path_20392" data-name="Path 20392" d="M3005.455,707.336c0-.942.01-1.884-.006-2.826,0-.294.086-.405.383-.382a6.656,6.656,0,0,0,.818,0c.231-.01.3.093.3.311-.007.62.018,1.241-.01,1.859-.016.357.12.46.449.434.246-.02.5,0,.743,0,.074,0,.17-.024.219.012.35.263.1.637.147.956.012.075-.156.247-.253.257a9.784,9.784,0,0,1-1,.019c-.213,0-.3.087-.3.316.014.657,0,1.314.011,1.971a.744.744,0,0,0,.794.793c.942.061.726-.013.773.812.022.377-.093.52-.476.478-.429-.048-.871-.015-1.29-.1a1.516,1.516,0,0,1-1.225-1.451c-.033-1.15-.009-2.3-.009-3.453Z" transform="translate(-2969.389 -699.444)" fill="#4a4b4f"/>
    <path id="Path_20393" data-name="Path 20393" d="M2651.662,736.8c0,.424.006.852-.008,1.279a.238.238,0,0,1-.165.159c-1.057.084-1.355,1.019-1.379,1.849-.02.7-.018,1.411,0,2.116.008.3-.1.379-.387.38-1.057,0-1.068.013-1.054-1.04a16.94,16.94,0,0,1,.094-2.44A2.783,2.783,0,0,1,2651.662,736.8Z" transform="translate(-2639.178 -729.684)" fill="#4a4b4f"/>
    <path id="Path_20394" data-name="Path 20394" d="M2971.456,741.558c0-.806.009-1.612,0-2.417-.005-.282.072-.417.374-.4.272.018.546.009.818,0,.21,0,.318.065.317.3-.005,1.686,0,3.372-.014,5.057a.372.372,0,0,1-.247.263c-1.243.14-1.243.135-1.243-1.1Z" transform="translate(-2937.923 -731.484)" fill="#4a4b4f"/>
    <path id="Path_20395" data-name="Path 20395" d="M3541.923,736.94c0-.247.007-.495,0-.742-.008-.219.08-.321.3-.312.247.01.5,0,.742.014a1.047,1.047,0,0,1,.966,1.038,1.061,1.061,0,0,1-.927,1.075C3541.922,738.14,3541.922,738.14,3541.923,736.94Z" transform="translate(-3465.909 -728.839)" fill="#4a4b4f"/>
    <path id="Path_20396" data-name="Path 20396" d="M3615.01,780.067a4.675,4.675,0,0,1-.629-.006c-.263-.036-.467-.162-.469-.475a.448.448,0,0,1,.461-.479,11.788,11.788,0,0,1,1.3,0c.072,0,.141.126.208.2.013.014,0,.048,0,.072C3615.932,780.071,3615.932,780.071,3615.01,780.067Z" transform="translate(-3532.54 -768.824)" fill="#4a4b4f"/>
  </g>
</svg>
