<?xml version="1.0" standalone="no"?>
<!DOCTYPE svg PUBLIC "-//W3C//DTD SVG 20010904//EN"
 "http://www.w3.org/TR/2001/REC-SVG-20010904/DTD/svg10.dtd">
<svg version="1.0" xmlns="http://www.w3.org/2000/svg"
 width="512.000000pt" height="512.000000pt" viewBox="0 0 512.000000 512.000000"
 preserveAspectRatio="xMidYMid meet">

<g transform="translate(0.000000,512.000000) scale(0.100000,-0.100000)"
fill="#000000" stroke="none">
<path d="M962 4956 c-177 -43 -333 -195 -386 -375 -14 -49 -16 -190 -16 -1313
0 -692 -3 -1258 -8 -1258 -4 0 -86 79 -182 175 -182 182 -209 201 -272 188
-37 -7 -85 -54 -93 -93 -15 -70 -7 -80 299 -388 160 -161 303 -300 318 -308
15 -8 43 -14 63 -14 20 0 48 6 63 14 15 8 158 147 319 308 249 251 292 298
298 330 13 71 -27 135 -96 151 -58 14 -88 -7 -269 -188 -96 -96 -178 -175
-183 -175 -4 0 -6 559 -5 1243 l3 1242 23 51 c29 63 82 116 147 146 l50 23
1485 3 c1060 2 1504 0 1552 -8 110 -19 185 -82 223 -189 12 -34 15 -90 15
-255 0 -192 2 -214 20 -243 42 -70 122 -87 184 -39 54 41 59 72 54 327 -4 209
-6 229 -30 290 -36 96 -70 149 -138 217 -68 67 -171 123 -258 141 -82 17
-3109 14 -3180 -3z"/>
<path d="M2495 3670 c-52 -34 -65 -72 -65 -192 l0 -107 -37 -6 c-132 -19 -197
-50 -279 -130 -97 -96 -137 -194 -137 -335 0 -169 74 -310 208 -395 93 -59
130 -67 350 -72 110 -2 214 -9 232 -14 17 -6 47 -28 67 -49 60 -66 72 -160 32
-245 -51 -110 -69 -115 -421 -115 -313 0 -324 -2 -364 -59 -39 -55 -21 -136
40 -179 19 -13 53 -18 167 -20 l142 -4 0 -105 c0 -117 13 -160 60 -193 38 -27
103 -26 141 1 49 35 59 66 59 188 0 124 -8 113 91 126 25 3 73 19 106 34 181
86 285 290 253 496 -30 195 -182 355 -365 385 -33 5 -136 10 -230 10 -157 0
-173 2 -210 23 -21 12 -53 42 -70 65 -27 40 -30 51 -30 122 0 71 3 82 30 122
17 23 49 53 70 65 39 22 48 23 323 23 218 0 290 3 316 14 99 41 101 183 3 229
-27 13 -64 17 -161 17 l-126 0 0 106 c0 78 -4 115 -17 141 -32 68 -117 93
-178 53z"/>
<path d="M4374 3534 c-49 -24 -590 -573 -609 -617 -40 -97 41 -191 148 -170
24 5 75 48 215 186 l182 181 0 -1230 c0 -1338 2 -1281 -55 -1365 -39 -55 -108
-96 -185 -109 -46 -8 -500 -10 -1550 -8 l-1485 3 -55 26 c-66 31 -115 79 -144
139 -19 41 -21 68 -26 280 -5 254 -7 262 -63 295 -59 35 -133 17 -174 -43 -16
-24 -18 -51 -18 -262 1 -197 4 -245 19 -295 59 -198 221 -349 411 -385 43 -8
493 -10 1610 -8 l1550 3 60 22 c163 62 292 200 336 361 18 63 19 130 19 1319
0 689 3 1253 8 1253 4 0 86 -79 182 -175 188 -188 211 -204 278 -186 65 18 98
74 86 146 -6 36 -34 68 -298 333 -160 162 -303 300 -318 308 -35 18 -85 18
-124 -2z"/>
</g>
</svg>
