<svg id="Visa" xmlns="http://www.w3.org/2000/svg" width="31.863" height="31.863" viewBox="0 0 31.863 31.863">
  <g id="invisible_box" data-name="invisible box" transform="translate(0 0)">
    <rect id="Rectangle_437" data-name="Rectangle 437" width="31.863" height="31.863" fill="none"/>
  </g>
  <g id="Icons" transform="translate(1.326 5.313)">
    <g id="Group_813" data-name="Group 813">
      <path id="Path_20397" data-name="Path 20397" d="M29.212,8H3.991A1.925,1.925,0,0,0,2,9.991V27.247a1.925,1.925,0,0,0,1.991,1.991H29.212A1.925,1.925,0,0,0,31.2,27.247V9.991A1.925,1.925,0,0,0,29.212,8Zm-.664,18.584H4.654V10.654H28.548Z" transform="translate(-1.998 -7.998)" fill="#4a4b4f"/>
      <path id="Path_20398" data-name="Path 20398" d="M30.585,25.536h1.593l.2-.133c.2-.465.265-.8.332-.863h2.257a4.049,4.049,0,0,1,.2.863l.2.133h1.261c.066,0,.133,0,.133-.066a.265.265,0,0,0,.066-.2L35.43,19.1c0-.133-.066-.2-.133-.2H34.036a.929.929,0,0,0-.929.6l-2.522,5.774C30.519,25.4,30.585,25.47,30.585,25.536Zm3.584-4.779.133.6.4,1.925H33.24Z" transform="translate(-11.602 -11.663)" fill="#4a4b4f"/>
      <path id="Path_20399" data-name="Path 20399" d="M23.233,25.339a6.637,6.637,0,0,0,1.726.332h0c1.858,0,2.987-.863,3.053-2.19s-.465-1.327-1.46-1.726-1-.531-1-.8.332-.6,1-.6h.066a2.124,2.124,0,0,1,1.128.265h.2c.066,0,.066-.066.066-.133l.2-.929a.332.332,0,0,0-.133-.265,6.305,6.305,0,0,0-1.394-.2c-1.726,0-2.92.863-2.92,2.124s.863,1.46,1.527,1.726.863.531.863.8-.531.664-1,.664a3.783,3.783,0,0,1-1.593-.332.133.133,0,0,0-.2,0c-.066,0-.066.066-.133.133l-.133,1A.13.13,0,0,0,23.233,25.339Z" transform="translate(-9.094 -11.732)" fill="#4a4b4f"/>
      <path id="Path_20400" data-name="Path 20400" d="M8.133,19.362a5.841,5.841,0,0,1,2.721,1.925h.2c.133-.066.133-.133.133-.265l-.332-1.593h0a.73.73,0,0,0-.8-.531H8.2a.2.2,0,0,0-.2.2Z" transform="translate(-4.017 -11.661)" fill="#4a4b4f"/>
      <path id="Path_20401" data-name="Path 20401" d="M18.6,25.571h1.593c.066,0,.133-.066.133-.2L21.388,19.2V19H19.861a.2.2,0,0,0-.2.2L18.6,25.372Z" transform="translate(-7.581 -11.698)" fill="#4a4b4f"/>
      <path id="Path_20402" data-name="Path 20402" d="M10.132,20.46h-.2c-.066,0-.133.133-.133.2L11.194,25.5l.2.133h1.659a.133.133,0,0,0,.133-.133l2.655-6.239c.066,0,.066-.133,0-.133S15.773,19,15.707,19h-1.46c-.133,0-.2.066-.2.133l-1.726,4.38-.2-.664h0A6.77,6.77,0,0,0,10.132,20.46Z" transform="translate(-4.622 -11.698)" fill="#4a4b4f"/>
    </g>
  </g>
</svg>
