<svg id="Wechat" xmlns="http://www.w3.org/2000/svg" width="61.51" height="18.019" viewBox="0 0 61.51 18.019">
  <g id="Group_826" data-name="Group 826" transform="translate(0 0)">
    <path id="Path_20405" data-name="Path 20405" d="M2234.268,1201.175c.783.121,1.577.2,2.349.372a10.673,10.673,0,0,1,4.984,2.569c.186.171.382.332.617.535-.174.091-.26.144-.352.183q-5.021,2.129-10.042,4.258a1.209,1.209,0,0,1-1.261-.115c-.651-.456-1.315-.895-1.973-1.342-.175-.119-.354-.235-.555-.063s-.094.366,0,.554c.567,1.184,1.131,2.369,1.7,3.553.362.753.642.838,1.39.427l11.433-6.281c.1-.057.21-.111.343-.181a6.653,6.653,0,0,1,1.141,3.091,7.256,7.256,0,0,1-3.284,6.79,11.7,11.7,0,0,1-8.2,2.167c-.764-.063-1.515-.277-2.278-.37a1.77,1.77,0,0,0-.928.126c-.716.342-1.393.765-2.1,1.127a1.671,1.671,0,0,1-.565.068,1.894,1.894,0,0,1-.046-.565c.111-.493.267-.975.4-1.462.141-.5.079-.669-.352-.982a8.03,8.03,0,0,1-3.223-4.4c-.124-.448-.18-.915-.267-1.373v-.8a2.275,2.275,0,0,0,.063-.278,6.773,6.773,0,0,1,1.3-3.357,10.114,10.114,0,0,1,6.141-3.882c.768-.18,1.561-.25,2.343-.371Z" transform="translate(-2223.196 -1201.175)" fill="#4a4b4f"/>
    <path id="Path_20406" data-name="Path 20406" d="M2999.452,1207.278h-1.292v1.294c0,.988-.034,1.978.01,2.964.042.956-.376,1.511-1.665,1.318v-.475c.192-.013.37-.016.546-.038.323-.04.568-.213.571-.548.016-1.491.007-2.982.007-4.515h-3.93v-.519h3.941v-2.047h.509v2.06h1.3Z" transform="translate(-2937.942 -1204.456)" fill="#4a4b4f"/>
    <path id="Path_20407" data-name="Path 20407" d="M3001.945,1381.476l-.151-.265a2.107,2.107,0,0,0,1.147-1.162.9.9,0,0,0,.02-.606c-.359-.971-.75-1.93-1.13-2.894-.048-.122-.091-.246-.14-.379.315-.122.457-.014.566.281.334.9.7,1.788,1.079,2.75l.715-1.926c.1-.271.215-.538.3-.814s.219-.42.546-.3a1.568,1.568,0,0,1-.053.213c-.4,1.019-.815,2.035-1.215,3.055a4.238,4.238,0,0,1-1.392,2.052Z" transform="translate(-2945.355 -1363.457)" fill="#4a4b4f"/>
    <path id="Path_20408" data-name="Path 20408" d="M2841.725,1211.44a10.183,10.183,0,0,0,3.408-1.345,2.36,2.36,0,0,1-.372-.225,8.289,8.289,0,0,1-1.774-2.311,4.059,4.059,0,0,1-.214-.726h2.476V1205.3h-3.7v-.518h3.719v-1.2h.534v1.175h3.777v.521h-3.743v1.485c.776.19,1.627-.19,2.417.272a7.17,7.17,0,0,1-2.39,3.13c.573.288,1.075.569,1.6.8s1.054.394,1.6.595l-.225.442c-.673-.252-1.351-.484-2.009-.761a6.214,6.214,0,0,1-1.036-.586.493.493,0,0,0-.576-.025q-1.369.644-2.774,1.209C2841.951,1212.039,2841.937,1212,2841.725,1211.44Zm3.769-1.638a6.266,6.266,0,0,0,2.1-2.486h-4.185A7.239,7.239,0,0,0,2845.494,1209.8Z" transform="translate(-2796.797 -1203.416)" fill="#4a4b4f"/>
    <path id="Path_20409" data-name="Path 20409" d="M2649.413,1207.91l-.314.558c-.3-.271-.284-.517-.119-.885.442-.983.8-2,1.215-3.054h.42l-.412,1.6h1.9v.476l-.429.062c-.091.629-.14,1.267-.283,1.883-.149.641-.4,1.259-.582,1.893a.5.5,0,0,0,.042.385c.386.521.8,1.024,1.221,1.563l-.284.488-1.354-1.667-1.451,1.638-.334-.564c.244-.224.5-.452.75-.7.145-.144.26-.317.4-.467a.893.893,0,0,0,.187-1.062A18.813,18.813,0,0,1,2649.413,1207.91Zm1.731-1.274c-.318,0-.583.02-.845,0a.365.365,0,0,0-.439.459c.141.947.324,1.888.492,2.831l.137-.013A10.494,10.494,0,0,0,2651.144,1206.636Z" transform="translate(-2617.859 -1204.286)" fill="#4a4b4f"/>
    <path id="Path_20410" data-name="Path 20410" d="M2577.334,1355.766c.3-.125.414.015.485.3.334,1.366.686,2.728,1.046,4.15.382-1.327.748-2.6,1.114-3.869.033-.116.065-.232.1-.348.042-.153.086-.338.295-.266a.461.461,0,0,1,.255.269c.186.648.349,1.3.518,1.955.185.71.368,1.419.57,2.2.048-.138.081-.218.1-.3.363-1.273.731-2.546,1.084-3.822.077-.279.2-.387.5-.26-.034.141-.062.281-.1.417q-.655,2.217-1.316,4.432c-.044.147-.035.338-.293.337s-.245-.182-.284-.336q-.5-1.96-1-3.921a1.734,1.734,0,0,0-.078-.181l-.931,3.194c-.1.347-.19.7-.31,1.038a.332.332,0,0,1-.241.185.311.311,0,0,1-.24-.177c-.439-1.64-.865-3.284-1.292-4.927C2577.315,1355.82,2577.328,1355.795,2577.334,1355.766Z" transform="translate(-2551.693 -1344.537)" fill="#4a4b4f"/>
    <path id="Path_20411" data-name="Path 20411" d="M2754.028,1281.209v-2.685h4.707v2.685Zm4.2-2.183h-3.658v1.679h3.658Z" transform="translate(-2715.614 -1272.927)" fill="#4a4b4f"/>
    <path id="Path_20412" data-name="Path 20412" d="M2713.125,1207.387l-.717,1.138c-.261-.263-.344-.464-.112-.809a12.7,12.7,0,0,0,1.567-3.4c.038-.123.083-.245.133-.392l.492.289c-.2.527-.407,1.038-.584,1.559a2.491,2.491,0,0,0-.154.763c-.013,1.8-.007,3.593-.007,5.389v.349h-.549V1207.4Z" transform="translate(-2676.776 -1203.725)" fill="#4a4b4f"/>
    <path id="Path_20413" data-name="Path 20413" d="M2962.28,1204.166c.5.244.5.244.344.7a2.432,2.432,0,0,1-.148.407,4.7,4.7,0,0,0-.46,2.48c.028,1.446.008,2.893.008,4.34v.4h-.533v-5.01l-.78,1.239c-.367-.377-.369-.378-.107-.788a14.4,14.4,0,0,0,1.589-3.511C2962.216,1204.353,2962.244,1204.275,2962.28,1204.166Z" transform="translate(-2907.069 -1203.95)" fill="#4a4b4f"/>
    <path id="Path_20414" data-name="Path 20414" d="M2775.84,1359.857h-.4a2.2,2.2,0,0,1-.03-.253c0-1.568.006-3.135,0-4.7,0-.289.075-.414.421-.311v2.058c.127-.109.186-.159.243-.21a1.368,1.368,0,0,1,1.408-.32,1.146,1.146,0,0,1,.829,1.08c.042.875.012,1.754.012,2.659l-.4.022c0-.147,0-.274,0-.4,0-.651.01-1.3-.008-1.953-.02-.694-.381-1.1-.947-1.1a1.166,1.166,0,0,0-1.127,1.143c-.013.627,0,1.254,0,1.881Z" transform="translate(-2735.444 -1343.455)" fill="#4a4b4f"/>
    <path id="Path_20415" data-name="Path 20415" d="M2919.146,1358.9v2.052h-.4a2.3,2.3,0,0,1-.028-.248c0-1.518.005-3.036-.006-4.554,0-.273.074-.4.358-.394a11.566,11.566,0,0,1,1.328.015,1.317,1.317,0,0,1,1.22,1.265,1.449,1.449,0,0,1-.924,1.594A10.252,10.252,0,0,1,2919.146,1358.9Zm0-2.825c0,.774-.007,1.447.009,2.119,0,.081.13.229.2.227a4.59,4.59,0,0,0,1.133-.107,1.058,1.058,0,0,0,.713-1.166,1,1,0,0,0-.868-1A9.958,9.958,0,0,0,2919.145,1356.077Z" transform="translate(-2868.384 -1344.559)" fill="#4a4b4f"/>
    <path id="Path_20416" data-name="Path 20416" d="M2665.008,1376.984h-2.6c-.16,1.236.717,1.778,2.273,1.414l.144.262c-1.082.586-2.791.312-2.867-1.451a3.078,3.078,0,0,1,.182-1.164,1.534,1.534,0,0,1,1.9-.955A1.617,1.617,0,0,1,2665.008,1376.984Zm-.43-.375c.015-.758-.378-1.209-1.02-1.208a1.16,1.16,0,0,0-1.125,1.208Z" transform="translate(-2630.202 -1362.442)" fill="#4a4b4f"/>
    <path id="Path_20417" data-name="Path 20417" d="M2826.681,1376.51c.1-1.006-.569-1.346-1.735-.881l-.17-.252a.606.606,0,0,1,.129-.1,4.249,4.249,0,0,1,.578-.2,1.249,1.249,0,0,1,1.655,1.279c.019.529.006,1.06.007,1.589,0,.288,0,.576,0,.9l-.319.024-.076-.374a5.555,5.555,0,0,1-.8.393,1.082,1.082,0,0,1-1.368-.562,1.138,1.138,0,0,1,.542-1.477,4.542,4.542,0,0,1,.993-.3A3.7,3.7,0,0,1,2826.681,1376.51Zm.031.428a2.194,2.194,0,0,0-1.395.22.785.785,0,0,0-.356.839.616.616,0,0,0,.457.543,1.036,1.036,0,0,0,1.292-.863C2826.724,1377.439,2826.711,1377.2,2826.711,1376.938Z" transform="translate(-2780.976 -1362.449)" fill="#4a4b4f"/>
    <path id="Path_20418" data-name="Path 20418" d="M2609.872,1206.878v1.5h.811v-2.156h.505v2.153h.775v-1.5h.479v2h-3.035v-2.01Z" transform="translate(-2581.459 -1205.861)" fill="#4a4b4f"/>
    <path id="Path_20419" data-name="Path 20419" d="M2961.8,1376.45c.134-.937-.553-1.306-1.687-.861l-.18-.286a1.822,1.822,0,0,1,1.681-.149,1.258,1.258,0,0,1,.65,1.275c.009.792,0,1.585,0,2.4h-.328c-.021-.129-.039-.245-.062-.392a4.29,4.29,0,0,1-.477.323,1.249,1.249,0,0,1-1.4-.066,1.023,1.023,0,0,1-.336-1.143,1.179,1.179,0,0,1,.894-.861C2960.964,1376.576,2961.384,1376.528,2961.8,1376.45Zm.027.471a2.19,2.19,0,0,0-1.384.212.787.787,0,0,0-.36.838.615.615,0,0,0,.452.548,1.042,1.042,0,0,0,1.286-.787A6.289,6.289,0,0,0,2961.83,1376.921Z" transform="translate(-2906.33 -1362.429)" fill="#4a4b4f"/>
    <path id="Path_20420" data-name="Path 20420" d="M2716.392,1354.562c-.055.266-.164.319-.415.244a2.231,2.231,0,0,0-2.533.733,2.86,2.86,0,0,0,.05,3.042,2.206,2.206,0,0,0,2.368.656c.129-.026.254-.071.4-.113l.165.252c-.173.373-1.808.414-2.5.08a2.858,2.858,0,0,1-1.012-3.819A2.675,2.675,0,0,1,2716.392,1354.562Z" transform="translate(-2677.162 -1343.211)" fill="#4a4b4f"/>
    <path id="Path_20421" data-name="Path 20421" d="M2605.89,1274.556l.678-.558.246.427-1.247,1.071a.808.808,0,0,1-.212-.793,6.117,6.117,0,0,0,.021-1.273H2604.1a2.82,2.82,0,0,1-.952,2.62l-.258-.436.108.029a7.108,7.108,0,0,0,.533-1.294,7.218,7.218,0,0,0,.02-1.414h2.337Z" transform="translate(-2575.414 -1267.741)" fill="#4a4b4f"/>
    <path id="Path_20422" data-name="Path 20422" d="M2578.564,1242.308v-3.713l-.749.886-.232-.391,1.671-2.779.39.223a2.116,2.116,0,0,1-.145.346,3.288,3.288,0,0,0-.44,2c.033,1.131.009,2.264.009,3.43Z" transform="translate(-2551.938 -1233.767)" fill="#4a4b4f"/>
    <path id="Path_20423" data-name="Path 20423" d="M2748.029,1203.659l.49-.275.507,1.192h2.524v.5h-5.959v-.486h2.882Z" transform="translate(-2707.787 -1203.224)" fill="#4a4b4f"/>
    <path id="Path_20424" data-name="Path 20424" d="M2757.294,1258.808v.5h-4.967v-.5Z" transform="translate(-2714.036 -1254.638)" fill="#4a4b4f"/>
    <path id="Path_20425" data-name="Path 20425" d="M2868.348,1369.479c-.775.273-1.28-.012-1.338-.816-.052-.707-.025-1.419-.032-2.129,0-.129,0-.258,0-.407l-.583-.034v-.349h.583v-.8l.419-.02v.8h1.022c.015.13.027.23.045.38h-1.035c0,.9-.014,1.749.006,2.6.008.34.223.5.579.5a1.155,1.155,0,0,1,.388.154Z" transform="translate(-2819.849 -1353.077)" fill="#4a4b4f"/>
    <path id="Path_20426" data-name="Path 20426" d="M2752.234,1240.223v-.443h4.965v.443Z" transform="translate(-2713.95 -1236.986)" fill="#4a4b4f"/>
    <path id="Path_20427" data-name="Path 20427" d="M2581.018,1204.93l.376.226a8.7,8.7,0,0,1-1.715,2.427c-.355-.423-.331-.4-.022-.8C2580.122,1206.2,2580.549,1205.574,2581.018,1204.93Z" transform="translate(-2553.641 -1204.658)" fill="#4a4b4f"/>
    <path id="Path_20428" data-name="Path 20428" d="M2611.205,1255.164v-.454h2.706v.454Z" transform="translate(-2583.127 -1250.836)" fill="#4a4b4f"/>
    <path id="Path_20429" data-name="Path 20429" d="M3007.952,1256.878c.093-.062.161-.11.232-.152s.125-.064.234-.119l1.037,2.072-.514.3Z" transform="translate(-2951.163 -1252.596)" fill="#4a4b4f"/>
  </g>
</svg>
