<?xml version="1.0" standalone="no"?>
<!DOCTYPE svg PUBLIC "-//W3C//DTD SVG 20010904//EN"
 "http://www.w3.org/TR/2001/REC-SVG-20010904/DTD/svg10.dtd">
<svg version="1.0" xmlns="http://www.w3.org/2000/svg"
 width="512.000000pt" height="512.000000pt" viewBox="0 0 512.000000 512.000000"
 preserveAspectRatio="xMidYMid meet">

<g transform="translate(0.000000,512.000000) scale(0.100000,-0.100000)"
fill="#000000" stroke="none">
<path d="M677 4419 c-100 -24 -192 -103 -227 -196 -20 -54 -21 -69 -18 -507 3
-448 3 -451 26 -494 35 -66 88 -119 150 -149 l57 -28 252 -3 253 -3 2 -1047 3
-1047 26 -55 c37 -80 81 -125 157 -162 l67 -33 1109 -3 c957 -2 1117 0 1167
13 105 26 169 81 218 185 l26 55 3 1047 2 1047 253 3 252 3 57 28 c62 30 115
83 150 149 23 43 23 46 26 494 3 438 2 453 -18 507 -27 71 -92 140 -168 175
l-57 27 -1865 2 c-1069 0 -1881 -3 -1903 -8z m3746 -220 c56 -26 57 -32 57
-464 0 -340 -2 -400 -16 -426 -27 -53 -59 -59 -299 -59 l-215 0 0 270 c0 290
-4 321 -51 354 -21 15 -139 16 -1339 16 -1200 0 -1318 -1 -1339 -16 -47 -33
-51 -64 -51 -354 l0 -270 -215 0 c-240 0 -272 6 -299 59 -14 26 -16 86 -16
426 0 353 2 400 17 425 9 16 26 33 37 39 30 14 3697 15 3729 0z m-693 -1481
l0 -963 -83 -16 c-183 -36 -344 -124 -482 -263 -134 -135 -215 -283 -257 -469
l-22 -97 -326 0 -325 0 -16 83 c-35 181 -123 341 -264 483 -140 141 -314 235
-492 265 l-73 13 0 963 0 963 1170 0 1170 0 0 -962z m-2198 -1218 c42 -14 102
-42 134 -61 75 -44 209 -178 253 -253 35 -58 83 -183 94 -243 l7 -33 -286 0
-286 0 -29 29 -29 29 0 286 0 286 33 -7 c17 -3 66 -18 109 -33z m2198 -246 l0
-286 -29 -29 -29 -29 -281 0 c-315 0 -290 -7 -270 78 17 71 80 199 132 269 60
81 161 163 261 213 65 32 162 64 209 69 4 1 7 -128 7 -285z"/>
<path d="M2497 3269 c-46 -27 -47 -35 -47 -599 l0 -532 -72 67 c-95 88 -120
101 -169 86 -65 -20 -95 -79 -70 -143 10 -26 335 -324 377 -346 51 -27 81 -10
240 133 212 193 224 206 224 252 0 45 -20 77 -61 99 -47 24 -83 9 -169 -67
-44 -38 -81 -69 -84 -69 -3 0 -6 241 -6 536 l0 536 -29 29 c-24 23 -38 29 -73
29 -24 0 -51 -5 -61 -11z"/>
</g>
</svg>
