<svg xmlns="http://www.w3.org/2000/svg" width="27" height="27" viewBox="0 0 27 27">
  <g id="Layer_2" data-name="Layer 2" transform="translate(-0.235 -0.32)">
   
    <g id="icons_Q2" data-name="icons Q2" transform="translate(2.244 1.683)">
      <g id="Group_165" data-name="Group 165">
        <path id="Path_237" data-name="Path 237" d="M17.927,17.855A3.927,3.927,0,1,0,14,13.927a3.927,3.927,0,0,0,3.927,3.927Zm0-5.611a1.683,1.683,0,1,1-1.683,1.683,1.627,1.627,0,0,1,1.683-1.683Z" transform="translate(-8.389 -6.073)"/>
        <path id="Path_238" data-name="Path 238" d="M11.122,32.732h10.1a1.122,1.122,0,0,0,1.122-1.122v-3.7l-.5-.337a11,11,0,0,0-11.333,0l-.5.337v3.7A1.122,1.122,0,0,0,11.122,32.732ZM12.244,29.2a8.584,8.584,0,0,1,7.855,0v1.29H12.244Z" transform="translate(-6.634 -13.094)"/>
        <path id="Path_239" data-name="Path 239" d="M21.954,3H5.122A1.122,1.122,0,0,0,4,4.122v21.32a1.122,1.122,0,0,0,1.122,1.122H21.954a1.122,1.122,0,0,0,1.122-1.122V4.122A1.122,1.122,0,0,0,21.954,3ZM20.832,24.32H6.244V5.244H20.832Z" transform="translate(-4 -3)"/>
        <path id="Path_240" data-name="Path 240" d="M41.122,19H40v5.611h1.122a1.122,1.122,0,0,0,1.122-1.122V20.122A1.122,1.122,0,0,0,41.122,19Z" transform="translate(-19.802 -10.023)"/>
        <path id="Path_241" data-name="Path 241" d="M41.122,31H40v5.611h1.122a1.122,1.122,0,0,0,1.122-1.122V32.122A1.122,1.122,0,0,0,41.122,31Z" transform="translate(-19.802 -15.29)"/>
        <path id="Path_242" data-name="Path 242" d="M41.122,7H40v5.611h1.122a1.122,1.122,0,0,0,1.122-1.122V8.122A1.122,1.122,0,0,0,41.122,7Z" transform="translate(-19.802 -4.756)"/>
      </g>
    </g>
  </g>
</svg>
