<svg xmlns="http://www.w3.org/2000/svg" width="20" height="20" viewBox="0 0 20 20">
  <g id="Layer_2" data-name="Layer 2" transform="translate(-0.281 -0.281)">
    <g id="icons_Q2" data-name="icons Q2" transform="translate(1.264 1.264)">
      <path id="Path_222" data-name="Path 222" d="M20.4,5.948a1.39,1.39,0,0,0-.969-.421H6.58L6.412,4.1A1.264,1.264,0,0,0,5.148,3H3.842a.842.842,0,0,0,0,1.685h.927L6.117,16.016A2.485,2.485,0,0,0,4.9,18.164a2.527,2.527,0,0,0,2.527,2.527,2.612,2.612,0,0,0,2.4-1.685h4.465a2.612,2.612,0,0,0,2.4,1.685,2.527,2.527,0,0,0,0-5.055,2.612,2.612,0,0,0-2.4,1.685H9.824A2.527,2.527,0,0,0,7.76,15.679l-.084-.885H18.332a1.264,1.264,0,0,0,1.222-1.1l1.137-6.655a1.516,1.516,0,0,0-.295-1.1ZM17.532,18.164a.842.842,0,1,1-.842-.842A.842.842,0,0,1,17.532,18.164Zm-9.267,0a.842.842,0,1,1-.842-.842A.842.842,0,0,1,8.265,18.164Zm9.688-5.055H7.465l-.674-5.9H18.922Z" transform="translate(-3 -3)"/>
    </g>
  </g>
</svg>
