<svg xmlns="http://www.w3.org/2000/svg" width="18" height="19.561" viewBox="0 0 18 19.561">
  <path id="Path_223" data-name="Path 223" d="M20,7.861h0L14,2.722a3.053,3.053,0,0,0-4,0L4,7.861a2.9,2.9,0,0,0-1,2.208v8.538a2.966,2.966,0,0,0,3,2.931H18a2.966,2.966,0,0,0,3-2.931V10.059a2.9,2.9,0,0,0-1-2.2ZM14,19.583H10V14.7a.989.989,0,0,1,1-.977h2a.989.989,0,0,1,1,.977Zm5-.977a.989.989,0,0,1-1,.977H16V14.7a2.966,2.966,0,0,0-3-2.931H11A2.966,2.966,0,0,0,8,14.7v4.884H6a.989.989,0,0,1-1-.977V10.059a.967.967,0,0,1,.34-.733l6-5.129a1.018,1.018,0,0,1,1.32,0l6,5.129a.967.967,0,0,1,.34.733Z" transform="translate(-3 -1.976)"/>
</svg>
