<svg xmlns="http://www.w3.org/2000/svg" width="30" height="30" viewBox="0 0 30 30">
  <g id="Layer_2" data-name="Layer 2" transform="translate(0 -0.129)">
    
    <g id="icons_Q2" data-name="icons Q2" transform="translate(2 6)">
      <path id="Path_372" data-name="Path 372" d="M26.983,6H3.19A1.111,1.111,0,0,0,2,7.01V23.163a1.111,1.111,0,0,0,1.19,1.01H26.983a1.111,1.111,0,0,0,1.19-1.01V7.01A1.111,1.111,0,0,0,26.983,6Zm-1.19,16.153H4.379V18.519L9.138,14.48l6.305,5.351a1.271,1.271,0,0,0,1.666,0L21.035,16.5l4.759,4.038Zm0-4.493L21.867,14.38a1.271,1.271,0,0,0-1.666,0l-3.926,3.281-6.305-5.3a1.271,1.271,0,0,0-1.666,0L4.379,15.642V8.019H25.793Z" transform="translate(-2 -6)"/>
    </g>
  </g>
</svg>
