<svg xmlns="http://www.w3.org/2000/svg" width="20.141" height="20.141" viewBox="0 0 20.141 20.141">
  <g id="Layer_2" data-name="Layer 2" transform="translate(-0.022)">
    <g id="invisible_box" data-name="invisible box" transform="translate(0.022)">
      <rect id="Rectangle_307" data-name="Rectangle 307" width="20.141" height="20.141" fill="none"/>
    </g>
    <g id="icons_Q2" data-name="icons Q2" transform="translate(1.683 1.68)">
      <path id="Path_366" data-name="Path 366" d="M20.464,7.486l-2.1-2.814A1.68,1.68,0,0,0,17.02,4H7.78a1.68,1.68,0,0,0-1.344.672l-2.1,2.814A1.722,1.722,0,0,0,4,8.494V19.12A1.68,1.68,0,0,0,5.68,20.8H19.12a1.68,1.68,0,0,0,1.68-1.68V8.494a1.722,1.722,0,0,0-.336-1.008ZM7.78,5.68h9.24L18.91,8.2H5.89ZM19.12,19.12H5.68V9.88h5.88v4.7l-1.092-1.092a.8.8,0,0,0-1.26.084.882.882,0,0,0,.084,1.134l2.52,2.478a.8.8,0,0,0,1.176,0l2.52-2.478a.882.882,0,0,0,.084-1.134.8.8,0,0,0-1.26-.084L13.24,14.584V9.88h5.88Z" transform="translate(-4 -4)" fill="#fff"/>
    </g>
  </g>
</svg>
