<svg xmlns="http://www.w3.org/2000/svg" width="99.643" height="20.453" viewBox="0 0 99.643 20.453">
  <g id="Group_61" data-name="Group 61" transform="translate(0)" opacity="0.7">
    <path id="Path_60" data-name="Path 60" d="M108.262,185.7a2.509,2.509,0,0,1,1.339.857l-.119,1.086-.618.135-.979.966-1.7,2.575-.616,1.462-1.584,2.561-1.1-.12-.24-1.584,1.1-1.958,3.539-4.881Zm5.485-.98,1.1,1.1-.978,1.1-1.221.979-1.824,2.562-.616,1.582-1.583,2.816a1.818,1.818,0,0,1-1.1-1.22l.242-1.716,1.717-2.681,3.044-3.541Z" transform="translate(-102.643 -174.888)" fill="#131313"/>
    <path id="Path_61" data-name="Path 61" d="M133.141,184.878l1.1,1.113-2.815,5.753-1.354.858-1.463-.737-1.717-2.7-1.354.739-2.694,3.8-1.1.979h-1.114l-.363-.6.243-1.716.858-3.193-.98-1.22.617-1.6,1.1-.858a1.442,1.442,0,0,1,1.233.737l.484,1.717.362.483.617-.6,1.234-.737,1.582.121,1.114,1.1.857,1.356,1.1-.738,1.475-2.937A7.965,7.965,0,0,1,133.141,184.878Z" transform="translate(-108.278 -174.939)" fill="#131313"/>
    <path id="Path_62" data-name="Path 62" d="M158.311,178.766l1.1.375,7.215-.186.831.643-.281,1.112-.831.363-1.1-.456-1.112-.094-3.609.187-1.112.269a1.366,1.366,0,0,1-.912.563l-.563.832-.269.737.175.282.925.362,2.039.469,1.85,1.007.55.924.645,2.133-.27,1.113-.469,1.006-.737.75-2.777,1.569-2.306.643L154.7,193l-.912-.456-.563-.831-.188-.926.095-.282.925-.643.188.926.643.738,1.02.281,1.1.094a7.048,7.048,0,0,0,4.626-2.588l.55-.926-.267-1.205-.565-.926-.924-.455-2.12-.563-1.207-.082-.831-.657-.268-1.1.268-1.113.47-.926.172-1.113.565-.831Z" transform="translate(-118.759 -172.985)" fill="#131313"/>
    <path id="Path_63" data-name="Path 63" d="M182.03,178.607l1.435.2q2.346,1.206,2.549,4.479a11.418,11.418,0,0,1-.629,4.626,8.969,8.969,0,0,1-5.849,5.365l-1.423.107-1.152-.308-.979-.656-.79-.846-.631-1.059-.441-1.382v-1.809l.253-1.49.444-1.275.629-1.071,1.516-1.8A10.549,10.549,0,0,1,182.03,178.607Zm.163,1.9-1.758.617a11.819,11.819,0,0,0-4.117,4.52l-.255.951-.08,2.12.443,1.113.441.672,1.235.683.925.053a7.753,7.753,0,0,0,3.97-3q2.038-4,.684-7.121A2.772,2.772,0,0,0,182.193,180.512Z" transform="translate(-125.499 -172.934)" fill="#131313"/>
    <path id="Path_64" data-name="Path 64" d="M200.069,178.607l1.435.2q2.348,1.206,2.549,4.479a11.4,11.4,0,0,1-.63,4.626,8.965,8.965,0,0,1-5.847,5.365l-1.423.107L195,193.078l-.977-.656-.792-.846-.629-1.059-.444-1.382v-1.809l.256-1.49.442-1.275.63-1.071,1.516-1.8A10.558,10.558,0,0,1,200.069,178.607Zm.16,1.9-1.757.617a11.822,11.822,0,0,0-4.115,4.52l-.254.951-.08,2.12.442,1.113.443.672,1.233.683.926.053a7.751,7.751,0,0,0,3.969-3q2.04-4,.685-7.121A2.776,2.776,0,0,0,200.229,180.512Z" transform="translate(-131.266 -172.934)" fill="#131313"/>
    <path id="Path_65" data-name="Path 65" d="M229.479,170.267l.763.658-.094,1.207-.669.845-.469.924-4.6,14.1.751.75-.093,1.208-.564.75-1.261-.282-.575-.75-.282-1.02,3.459-8.489.1-1.126,1.328-4.1h-.47l-2.119.658-2.1-.188-8.048-3.741.3-.926,1.153.188L223.15,174l1.26.095,1.233-.282,1.73-1.207,1.248-1.676Z" transform="translate(-138.419 -170.267)" fill="#131313"/>
    <path id="Path_66" data-name="Path 66" d="M243.567,183.951l1.141.684-.457.924-2.521.456-1.154.577-1.245.336-.458.7,1.7,1.718.335,1.152v1.491l-.561,1.031-.913.792-2.173,1.273-1.165-.576-.335-.805,1.154-1.032,1.247-.563.709-.924-.254-1.141-1.7-1.609-1.154-.576-.456-1.154.791-.79.937-.578,5.378-1.031Z" transform="translate(-145.064 -174.643)" fill="#131313"/>
    <path id="Path_67" data-name="Path 67" d="M246.61,173.463l.845.509L247.241,175l-2.442,4.734-.858-.51,2.025-5.162A3.245,3.245,0,0,1,246.61,173.463Z" transform="translate(-147.825 -171.289)" fill="#131313"/>
  </g>
</svg>
