<svg xmlns="http://www.w3.org/2000/svg" width="86.495" height="25.987" viewBox="0 0 86.495 25.987">
  <g id="Group_64" data-name="Group 64" transform="translate(0)" opacity="0.7">
    <g id="Group_62" data-name="Group 62" transform="translate(37.813 1.682)">
      <path id="Path_68" data-name="Path 68" d="M238.008,488.158a2.129,2.129,0,0,0-2.405,2.4v3.309h1.436v-3.6c.011-.585.33-.873.958-.873h.023c.628,0,.947.287.958.873v2.878a.718.718,0,0,0,.719.719h.718v-3.309A2.129,2.129,0,0,0,238.008,488.158Z" transform="translate(-228.887 -469.663)" fill="#1a1818"/>
      <path id="Path_69" data-name="Path 69" d="M302.272,488.158a2.566,2.566,0,0,0-1.7.508,2.566,2.566,0,0,0-1.7-.508,2.129,2.129,0,0,0-2.406,2.4v3.309h1.436v-3.6c.011-.585.33-.873.958-.873h.019c.632,0,.951.287.962.873v3.6H301.3v-3.6c.011-.585.33-.873.958-.873h.023c.628,0,.947.287.958.873v2.878a.718.718,0,0,0,.719.719h.718v-3.309A2.129,2.129,0,0,0,302.272,488.158Z" transform="translate(-269.197 -469.663)" fill="#1a1818"/>
      <path id="Path_70" data-name="Path 70" d="M348,488.158a2.128,2.128,0,0,0-2.405,2.4v3.309h1.436v-3.6c.011-.585.33-.873.958-.873h.023c.628,0,.947.287.958.873v2.878a.719.719,0,0,0,.719.719h.718v-3.309A2.129,2.129,0,0,0,348,488.158Z" transform="translate(-301.72 -469.663)" fill="#1a1818"/>
      <path id="Path_71" data-name="Path 71" d="M220.193,488.9a2.335,2.335,0,0,0-1.943-.719s-2.173-.091-2.379,1.554h1.411s.14-.427.933-.427c0,0,.722.006.847.427,0,0,.1.4-.414.539l-1.976.513a1.3,1.3,0,0,0-.948,1.309,1.728,1.728,0,0,0,.975,1.723,3.367,3.367,0,0,0,1.125.163,4.387,4.387,0,0,0,.772-.073,1.875,1.875,0,0,0,.726-.334s.069.213.226.264a1.174,1.174,0,0,0,.365.055h.55v-4.028A1.748,1.748,0,0,0,220.193,488.9Zm-1.154,3.2a1.175,1.175,0,0,1-1.115.833.809.809,0,0,1-.874-.715.4.4,0,0,1,.262-.5l1.781-.521A2.045,2.045,0,0,1,219.039,492.1Z" transform="translate(-215.72 -469.679)" fill="#1a1818"/>
      <path id="Path_72" data-name="Path 72" d="M280.4,488.9a2.335,2.335,0,0,0-1.943-.719s-2.173-.091-2.379,1.554h1.411s.14-.427.932-.427c0,0,.722.006.847.427,0,0,.1.4-.414.539l-1.976.513a1.3,1.3,0,0,0-.948,1.309,1.728,1.728,0,0,0,.975,1.723,3.367,3.367,0,0,0,1.125.163,4.39,4.39,0,0,0,.772-.073,1.879,1.879,0,0,0,.726-.334s.069.213.226.264a1.178,1.178,0,0,0,.365.055h.55v-4.028A1.747,1.747,0,0,0,280.4,488.9Zm-1.154,3.2a1.176,1.176,0,0,1-1.115.833.809.809,0,0,1-.874-.715.4.4,0,0,1,.262-.5l1.781-.521A2.045,2.045,0,0,1,279.247,492.1Z" transform="translate(-255.59 -469.679)" fill="#1a1818"/>
      <path id="Path_73" data-name="Path 73" d="M330.262,488.9a2.335,2.335,0,0,0-1.943-.719s-2.173-.091-2.379,1.554h1.411s.14-.427.933-.427c0,0,.722.006.847.427,0,0,.1.4-.414.539l-1.976.513a1.3,1.3,0,0,0-.948,1.309,1.728,1.728,0,0,0,.975,1.723,3.367,3.367,0,0,0,1.125.163,4.39,4.39,0,0,0,.772-.073,1.88,1.88,0,0,0,.726-.334s.069.213.226.264a1.178,1.178,0,0,0,.365.055h.549v-4.028A1.746,1.746,0,0,0,330.262,488.9Zm-1.154,3.2a1.176,1.176,0,0,1-1.115.833.809.809,0,0,1-.874-.715.4.4,0,0,1,.262-.5l1.781-.521A2.043,2.043,0,0,1,329.108,492.1Z" transform="translate(-288.607 -469.679)" fill="#1a1818"/>
      <path id="Path_74" data-name="Path 74" d="M259.517,481.915H258.7v2.509a2.34,2.34,0,0,0-1.306-.392,2.579,2.579,0,0,0-.785.112,2.226,2.226,0,0,0-.629.312,2.2,2.2,0,0,0-.479.472,2.774,2.774,0,0,0-.33.585,3.147,3.147,0,0,0-.193.66,3.936,3.936,0,0,0-.062.692,4.35,4.35,0,0,0,.136,1.106,2.562,2.562,0,0,0,.438.916,2.089,2.089,0,0,0,.784.62,2.71,2.71,0,0,0,1.154.224,1.775,1.775,0,0,0,.835-.191,2.166,2.166,0,0,0,.461-.336.709.709,0,0,0,.685.532h.737v-7.191A.631.631,0,0,0,259.517,481.915ZM258.437,488a1.169,1.169,0,0,1-.379.383,1.071,1.071,0,0,1-.577.146,1.084,1.084,0,0,1-.558-.135,1.186,1.186,0,0,1-.379-.351,1.544,1.544,0,0,1-.221-.487,2.124,2.124,0,0,1-.072-.539,3.491,3.491,0,0,1,.067-.691,1.776,1.776,0,0,1,.213-.568,1.116,1.116,0,0,1,.378-.381,1.212,1.212,0,0,1,1.113-.011,1.146,1.146,0,0,1,.382.35,1.651,1.651,0,0,1,.231.516,2.36,2.36,0,0,1,.065.414v.437a2.952,2.952,0,0,1-.052.378A1.743,1.743,0,0,1,258.437,488Z" transform="translate(-241.676 -465.529)" fill="#1a1818"/>
      <path id="Path_75" data-name="Path 75" d="M329.676,448.272v-12.6a1.468,1.468,0,0,1,1.476-1.473h8.7v.942a1.48,1.48,0,0,1-1.246,1.47h-6.12v3.21h7.35v.94a1.471,1.471,0,0,1-1.476,1.473h-5.874v3.414h7.381V446.8a1.466,1.466,0,0,1-1.476,1.473Z" transform="translate(-291.181 -433.934)" fill="#1a1818"/>
      <path id="Path_76" data-name="Path 76" d="M250.326,433.408a6.594,6.594,0,0,0-4.962,1.976,7.7,7.7,0,0,0-1.775,5.337,7.563,7.563,0,0,0,1.776,5.3,6.509,6.509,0,0,0,4.961,1.935,6.587,6.587,0,0,0,4.962-1.936,7.542,7.542,0,0,0,1.816-5.3,7.7,7.7,0,0,0-1.818-5.341A6.68,6.68,0,0,0,250.326,433.408Zm-2.729,3.86a3.323,3.323,0,0,1,2.729-1.185,3.394,3.394,0,0,1,2.729,1.184,5.45,5.45,0,0,1,1.007,3.453,5.264,5.264,0,0,1-1,3.408,3.391,3.391,0,0,1-2.731,1.188,3.32,3.32,0,0,1-2.73-1.187,5.225,5.225,0,0,1-.965-3.408A5.407,5.407,0,0,1,247.6,437.268Z" transform="translate(-234.175 -433.408)" fill="#1a1818"/>
      <path id="Path_77" data-name="Path 77" d="M218.758,434.2h-1.433a1.529,1.529,0,0,0-1.538,1.535V446.8a1.53,1.53,0,0,0,1.538,1.533h6.092a1.53,1.53,0,0,0,1.539-1.535v-1.206h-6.2Z" transform="translate(-215.764 -433.934)" fill="#1a1818"/>
      <path id="Path_78" data-name="Path 78" d="M290.839,448.64a2.2,2.2,0,0,0,2.044-1.408l5.078-12.69h-.008l.008-.019h-2.107a1.678,1.678,0,0,0-1.556,1.049l-3.53,8.892-3.53-8.892a1.678,1.678,0,0,0-1.555-1.049h-2.108l.008.019h-.008l5.078,12.69a2.2,2.2,0,0,0,2.044,1.408Z" transform="translate(-260.653 -434.146)" fill="#1a1818"/>
    </g>
    <g id="Group_63" data-name="Group 63" transform="translate(0)">
      <path id="Path_79" data-name="Path 79" d="M163.884,434.486v.006l2.408,2.406c-.219-3.424-.844-8.424-2.4-8.45h-.012a1.436,1.436,0,0,0-1.093.529l-5.382,5.366s-.025.024-.06.055Z" transform="translate(-139.253 -428.441)" fill="#1a1818"/>
      <path id="Path_80" data-name="Path 80" d="M166.739,440.105h0v0l-9.684,9.664c3.317-1.427,11.589-5.132,14.546-7.9h0l0,0a2.942,2.942,0,0,0,1.146-1.763,1.939,1.939,0,0,0-.646-1.258l-6.538-6.521C166.585,434.961,166.7,439.434,166.739,440.105Z" transform="translate(-139.059 -431.014)" fill="#1a1818"/>
      <path id="Path_81" data-name="Path 81" d="M141.921,440.207c1.4,3.3,2.495,6.6,2.627,7.007l7.167-7.15-7.2-.1h0a2.127,2.127,0,0,1-1.3-.663l-3.347-3.335A42.061,42.061,0,0,1,141.921,440.207Z" transform="translate(-127.681 -433.42)" fill="#1a1818"/>
      <path id="Path_82" data-name="Path 82" d="M134.45,468.2l0-.011-9.79-9.762a75.276,75.276,0,0,0,3.426,7.184c3.822,6.92,5.564,8.446,6.291,8.548.026,0,.053.006.078.006a1.806,1.806,0,0,0,1.258-.615l11.725-11.693A113.825,113.825,0,0,1,134.45,468.2Z" transform="translate(-117.604 -448.294)" fill="#1a1818"/>
      <path id="Path_83" data-name="Path 83" d="M114.951,434.418v.006l6.872,6.854c-.458-1.321-1.27-3.572-2.223-5.819-1.384-3.252-2.609-5.438-3.642-6.5a1.918,1.918,0,0,0-.744-.5,1.077,1.077,0,0,0-.264-.036,1.7,1.7,0,0,0-1.18.557L107,435.733C108.55,435.061,111.147,434.634,114.951,434.418Z" transform="translate(-105.915 -428.43)" fill="#1a1818"/>
      <path id="Path_84" data-name="Path 84" d="M109.745,450.5h0l0,0v0h0l.011-.005,2.414-2.406c-4.426.3-7.174.931-8.106,1.884a.967.967,0,0,0-.277.546.758.758,0,0,0,0,.183,2.122,2.122,0,0,0,.618,1.091l12.266,12.233A115.7,115.7,0,0,1,109.745,450.5Z" transform="translate(-103.781 -441.442)" fill="#1a1818"/>
    </g>
  </g>
</svg>
