<svg id="Layer_2" data-name="Layer 2" xmlns="http://www.w3.org/2000/svg" width="27" height="27" viewBox="0 0 27 27">
  <g id="invisible_box" data-name="invisible box">
    <rect id="Rectangle_35" data-name="Rectangle 35" width="27" height="27" fill="none"/>
  </g>
  <g id="horoscope" transform="translate(2.14 2.295)">
    <g id="Group_27" data-name="Group 27">
      <path id="Path_51" data-name="Path 51" d="M5.147,10.887A1.148,1.148,0,0,0,6.3,9.739V6.3H9.739a1.148,1.148,0,0,0,0-2.3H5.721A1.665,1.665,0,0,0,4,5.721V9.739A1.148,1.148,0,0,0,5.147,10.887Z" transform="translate(-3.998 -3.998)"/>
      <path id="Path_52" data-name="Path 52" d="M9.739,36.592H6.3V33.148a1.148,1.148,0,1,0-2.3,0v4.018a1.665,1.665,0,0,0,1.722,1.722H9.739a1.148,1.148,0,1,0,0-2.3Z" transform="translate(-3.998 -15.927)" />
      <path id="Path_53" data-name="Path 53" d="M37.166,4H33.148a1.148,1.148,0,1,0,0,2.3h3.444V9.739a1.148,1.148,0,1,0,2.3,0V5.721A1.665,1.665,0,0,0,37.166,4Z" transform="translate(-15.927 -3.998)" />
      <path id="Path_54" data-name="Path 54" d="M37.74,32a1.148,1.148,0,0,0-1.148,1.148v3.444H33.148a1.148,1.148,0,1,0,0,2.3h4.018a1.665,1.665,0,0,0,1.722-1.722V33.148A1.148,1.148,0,0,0,37.74,32Z" transform="translate(-15.927 -15.927)"/>
      <path id="Path_55" data-name="Path 55" d="M13,15.148v2.3a1.148,1.148,0,1,0,2.3,0v-2.3a1.148,1.148,0,1,0-2.3,0Z" transform="translate(-7.833 -8.259)" />
      <path id="Path_56" data-name="Path 56" d="M32.148,18.592A1.148,1.148,0,0,0,33.3,17.444v-2.3a1.148,1.148,0,0,0-2.3,0v2.3A1.148,1.148,0,0,0,32.148,18.592Z" transform="translate(-15.501 -8.259)" />
      <path id="Path_57" data-name="Path 57" d="M20.148,21.462a3.444,3.444,0,0,0,3.444-3.444v-2.87a1.148,1.148,0,0,0-2.3,0v2.87a1.148,1.148,0,0,1-1.148,1.148,1.148,1.148,0,1,0,0,2.3Z" transform="translate(-10.389 -8.259)" />
      <path id="Path_58" data-name="Path 58" d="M25.125,29.815A1.148,1.148,0,0,0,23.4,28.323a4.936,4.936,0,0,1-3.731,1.894,4.936,4.936,0,0,1-3.731-1.894,1.148,1.148,0,1,0-1.722,1.492,7.175,7.175,0,0,0,5.453,2.7A7.175,7.175,0,0,0,25.125,29.815Z" transform="translate(-8.191 -14.144)" />
    </g>
  </g>
</svg>
