<svg xmlns="http://www.w3.org/2000/svg" width="26" height="26" viewBox="0 0 26 26">
  <g id="Layer_2" data-name="Layer 2" opacity="0.7">
    <g id="invisible_box" data-name="invisible box">
      <rect id="Rectangle_265" data-name="Rectangle 265" width="26" height="26" fill="none"/>
    </g>
    <g id="Q3_icons" data-name="Q3 icons" transform="translate(2.176 1.087)">
      <g id="Group_326" data-name="Group 326">
        <ellipse id="Ellipse_57" data-name="Ellipse 57" cx="1.5" cy="1" rx="1.5" ry="1" transform="translate(3.824 14.913)"/>
        <path id="Path_332" data-name="Path 332" d="M27.619,29H21.088a1.088,1.088,0,1,0,0,2.177h6.531a1.088,1.088,0,0,0,0-2.177Z" transform="translate(-11.291 -14.305)"/>
        <circle id="Ellipse_58" data-name="Ellipse 58" cx="1.5" cy="1.5" r="1.5" transform="translate(3.824 17.913)"/>
        <path id="Path_333" data-name="Path 333" d="M27.619,35H21.088a1.088,1.088,0,1,0,0,2.177h6.531a1.088,1.088,0,0,0,0-2.177Z" transform="translate(-11.291 -17.04)"/>
        <path id="Path_334" data-name="Path 334" d="M21.265,8.531A3.265,3.265,0,1,0,18,5.265,3.265,3.265,0,0,0,21.265,8.531Zm0-4.354a1.088,1.088,0,1,1-1.088,1.088A1.088,1.088,0,0,1,21.265,4.177Z" transform="translate(-10.38 -1.999)"/>
        <path id="Path_335" data-name="Path 335" d="M13,18.177v2.177a1.088,1.088,0,0,0,1.088,1.088h9.8a1.088,1.088,0,0,0,1.088-1.088V18.177A9.8,9.8,0,0,0,18.986,16,9.8,9.8,0,0,0,13,18.177Zm2.231,1.088a7.022,7.022,0,0,1,7.51,0Z" transform="translate(-8.101 -8.38)"/>
        <path id="Path_336" data-name="Path 336" d="M24.136,2H21.414a1.088,1.088,0,0,0,0,2.177h2.177V23.768H6.176V4.176H8.353A1.088,1.088,0,1,0,8.353,2H5.632A1.578,1.578,0,0,0,4,3.632V24.312a1.578,1.578,0,0,0,1.633,1.633h18.5a1.578,1.578,0,0,0,1.633-1.633V3.632A1.578,1.578,0,0,0,24.136,2Z" transform="translate(-3.998 -1.998)"/>
      </g>
    </g>
  </g>
</svg>
