<svg xmlns="http://www.w3.org/2000/svg" width="29" height="29" viewBox="0 0 29 29">
  <g id="Layer_2" data-name="Layer 2" opacity="0.7">
    <g id="invisible_box" data-name="invisible box">
      <rect id="Rectangle_243" data-name="Rectangle 243" width="29" height="29" fill="none"/>
    </g>
    <g id="icons_Q2" data-name="icons Q2" transform="translate(2.449 2.449)">
      <path id="Path_317" data-name="Path 317" d="M27.267,4H5.225A1.225,1.225,0,0,0,4,5.225V27.267a1.225,1.225,0,0,0,1.225,1.225H27.267a1.225,1.225,0,0,0,1.225-1.225V5.225A1.225,1.225,0,0,0,27.267,4ZM11.347,26.042h-4.9v-4.9h4.9Zm0-7.347h-4.9V13.8h4.9Zm0-7.347h-4.9v-4.9h4.9Zm7.347,14.695H13.8v-4.9h4.9Zm0-7.347H13.8V13.8h4.9Zm0-7.347H13.8v-4.9h4.9Zm7.347,9.8v4.9h-4.9v-4.9Zm0-2.449h-4.9V13.8h4.9Zm0-7.347h-4.9v-4.9h4.9Z" transform="translate(-4 -4)"/>
    </g>
  </g>
</svg>
