<svg xmlns="http://www.w3.org/2000/svg" width="24" height="23" viewBox="0 0 24 23">
  <g id="Layer_2" data-name="Layer 2" transform="translate(0 -0.5)" opacity="0.7">
    <g id="invisible_box" data-name="invisible box" transform="translate(0 0)">
      <rect id="Rectangle_256" data-name="Rectangle 256" width="24" height="23" transform="translate(0 0.5)" fill="none"/>
    </g>
    <g id="icons_Q2" data-name="icons Q2" transform="translate(0.979 1.958)">
      <path id="Path_323" data-name="Path 323" d="M22.562,4H2.979A.979.979,0,0,0,2,4.979V18.687a.979.979,0,0,0,.979.979H9.833v1.958H6.9a.979.979,0,1,0,0,1.958h11.75a.979.979,0,1,0,0-1.958H15.708V19.666h6.854a.979.979,0,0,0,.979-.979V4.979A.979.979,0,0,0,22.562,4Zm-.979,1.958v7.833H3.958V5.958ZM13.75,21.625H11.791V19.666H13.75ZM3.958,17.708V15.75H21.583v1.958Z" transform="translate(-2 -4)"/>
    </g>
  </g>
</svg>
