<svg xmlns="http://www.w3.org/2000/svg" width="21" height="21" viewBox="0 0 21 21">
  <g id="Layer_2" data-name="Layer 2" opacity="0.7">
    <g id="invisible_box" data-name="invisible box">
      <rect id="Rectangle_242" data-name="Rectangle 242" width="21" height="21" fill="none"/>
    </g>
    <g id="icons_Q2" data-name="icons Q2" transform="translate(2.602 0.867)">
      <path id="Path_312" data-name="Path 312" d="M11.2,31.735v2.6H7.735v-2.6H11.2M12.072,30h-5.2A.867.867,0,0,0,6,30.867V35.2a.867.867,0,0,0,.867.867h5.2a.867.867,0,0,0,.867-.867V30.867A.867.867,0,0,0,12.072,30Z" transform="translate(-6 -17.856)"/>
      <path id="Path_313" data-name="Path 313" d="M12.072,4.867h0A.867.867,0,0,0,11.2,4H6.867A.867.867,0,0,0,6,4.867v7.807a.867.867,0,0,0,.867.867H11.2a.867.867,0,0,0,.867-.867h0a.867.867,0,0,0-.867-.867H7.735V5.735H11.2A.867.867,0,0,0,12.072,4.867Z" transform="translate(-6 -3.133)"/>
      <path id="Path_314" data-name="Path 314" d="M31.2,30.867v3.47h-3.47v-3.47A.867.867,0,0,0,26.867,30h0a.867.867,0,0,0-.867.867V35.2a.867.867,0,0,0,.867.867h5.2a.867.867,0,0,0,.867-.867V30.867A.867.867,0,0,0,32.072,30h0A.867.867,0,0,0,31.2,30.867Z" transform="translate(-17.326 -17.856)"/>
      <path id="Path_315" data-name="Path 315" d="M32.2,11.6a.911.911,0,0,1-.867.867H30.47v.867a.867.867,0,0,1-.867.867.911.911,0,0,1-.867-.867V12.47h-.867A.867.867,0,0,1,27,11.6a.911.911,0,0,1,.867-.867h.867V9.867A.867.867,0,0,1,29.6,9a.911.911,0,0,1,.867.867v.867h.867A.867.867,0,0,1,32.2,11.6Z" transform="translate(-17.892 -5.964)"/>
      <path id="Path_316" data-name="Path 316" d="M25.638,3.735a3.9,3.9,0,1,1-3.9,3.9,3.9,3.9,0,0,1,3.9-3.9m0-1.735a5.638,5.638,0,1,0,5.638,5.638A5.638,5.638,0,0,0,25.638,2Z" transform="translate(-13.928 -2)"/>
    </g>
  </g>
</svg>
