<svg xmlns="http://www.w3.org/2000/svg" width="34" height="35" viewBox="0 0 34 35">
  <g id="Layer_2" data-name="Layer 2" transform="translate(-0.217 0.441)" opacity="0.896">
    <g id="invisible_box" data-name="invisible box" transform="translate(0 0)">
      <rect id="Rectangle_50" data-name="Rectangle 50" width="34" height="35" transform="translate(0.217 -0.441)" fill="none"/>
    </g>
    <g id="icons_Q2" data-name="icons Q2" transform="translate(2.155 2.224)">
      <path id="Path_89" data-name="Path 89" d="M32.673,8.029a2.371,2.371,0,0,0-1.652-.718H9.107L8.82,4.868A2.155,2.155,0,0,0,6.664,3H4.437a1.437,1.437,0,1,0,0,2.874H6.018L8.317,25.2a4.239,4.239,0,0,0-2.084,3.664,4.311,4.311,0,0,0,4.311,4.311,4.455,4.455,0,0,0,4.1-2.874h7.616a4.455,4.455,0,0,0,4.1,2.874,4.311,4.311,0,0,0,0-8.622,4.455,4.455,0,0,0-4.1,2.874H14.639a4.311,4.311,0,0,0-3.521-2.8l-.144-1.509H29.153a2.155,2.155,0,0,0,2.084-1.868L33.176,9.9a2.587,2.587,0,0,0-.5-1.868ZM27.788,28.865a1.437,1.437,0,1,1-1.437-1.437A1.437,1.437,0,0,1,27.788,28.865Zm-15.807,0a1.437,1.437,0,1,1-1.437-1.437A1.437,1.437,0,0,1,11.981,28.865Zm16.525-8.622H10.616L9.466,10.185H30.158Z" transform="translate(-3 -3)" fill="#0d6afa"/>
    </g>
  </g>
</svg>
