<svg xmlns="http://www.w3.org/2000/svg" width="26" height="25" viewBox="0 0 26 25">
  <g id="Basket" transform="translate(0.171 -0.32)">
    <g id="invisible_box" data-name="invisible box" transform="translate(0 0)">
      <rect id="Rectangle_91" data-name="Rectangle 91" width="26" height="25" transform="translate(-0.171 0.32)" fill="none"/>
    </g>
    <g id="icons_Q2" data-name="icons Q2" transform="translate(1.261 1.261)">
      <path id="Path_222" data-name="Path 222" d="M25.309,6.781a1.783,1.783,0,0,0-1.242-.54H7.592L7.375,4.4A1.621,1.621,0,0,0,5.755,3H4.08a1.08,1.08,0,1,0,0,2.161H5.269L7,19.692a3.187,3.187,0,0,0-1.567,2.755,3.241,3.241,0,0,0,3.241,3.241,3.349,3.349,0,0,0,3.079-2.161h5.726a3.349,3.349,0,0,0,3.079,2.161,3.241,3.241,0,0,0,0-6.482,3.349,3.349,0,0,0-3.079,2.161H11.751A3.241,3.241,0,0,0,9.1,19.259L9,18.125H22.663a1.621,1.621,0,0,0,1.567-1.4l1.458-8.535a1.945,1.945,0,0,0-.378-1.4ZM21.636,22.446a1.08,1.08,0,1,1-1.08-1.08A1.08,1.08,0,0,1,21.636,22.446Zm-11.884,0a1.08,1.08,0,1,1-1.08-1.08A1.08,1.08,0,0,1,9.752,22.446Zm12.424-6.482H8.726L7.862,8.4H23.419Z" transform="translate(-3 -3)"/>
    </g>
  </g>
</svg>
