<svg id="Delete" xmlns="http://www.w3.org/2000/svg" width="24" height="24" viewBox="0 0 24 24">
  <g id="invisible_box" data-name="invisible box">
    <rect id="Rectangle_268" data-name="Rectangle 268" width="24" height="24" fill="none"/>
  </g>
  <g id="icons_Q2" data-name="icons Q2" transform="translate(2.46 1.476)">
    <path id="Path_339" data-name="Path 339" d="M23.7,5.854a1.132,1.132,0,0,1-.3.787.836.836,0,0,1-.689.3h-5.9a.984.984,0,0,1-.984-.984V4.968H12.872v.984a.984.984,0,0,1-.984.984H6.033A1.033,1.033,0,0,1,5,6.05a1.132,1.132,0,0,1,.3-.787.836.836,0,0,1,.689-.3H10.9V3.984A.984.984,0,0,1,11.888,3h4.92a.984.984,0,0,1,.984.984v.984h4.871a1.033,1.033,0,0,1,1.033.886Z" transform="translate(-4.999 -3)"/>
    <path id="Path_340" data-name="Path 340" d="M21.79,15.886,20.609,27.792H12.344L11.163,15.886A.984.984,0,0,0,10.179,15h0a.984.984,0,0,0-.984,1.082l1.279,12.792a.984.984,0,0,0,.984.886H21.5a.984.984,0,0,0,.984-.886l1.279-12.792A.984.984,0,0,0,22.774,15h0A.984.984,0,0,0,21.79,15.886Z" transform="translate(-7.128 -9.096)"/>
  </g>
</svg>
