<svg id="Information" xmlns="http://www.w3.org/2000/svg" width="25.616" height="25.616" viewBox="0 0 25.616 25.616">
  <g id="invisible_box" data-name="invisible box" transform="translate(0 0)">
    <rect id="Rectangle_302" data-name="Rectangle 302" width="25.616" height="25.616" fill="none"/>
  </g>
  <g id="icons_Q2" data-name="icons Q2" transform="translate(1.088 0.694)">
    <g id="Group_511" data-name="Group 511">
      <path id="Path_362" data-name="Path 362" d="M20.351,10A4.351,4.351,0,1,0,24.7,14.351,4.351,4.351,0,0,0,20.351,10Zm0,6.526a2.175,2.175,0,1,1,2.175-2.175A2.175,2.175,0,0,1,20.351,16.526Z" transform="translate(-8.386 -5.649)"/>
      <path id="Path_363" data-name="Path 363" d="M13.964,2a11.91,11.91,0,1,0,8.476,3.488A11.964,11.964,0,0,0,13.964,2ZM7.33,21.143a14.357,14.357,0,0,1,6.635-1.74,14.357,14.357,0,0,1,6.635,1.74,9.735,9.735,0,0,1-13.27,0Zm14.738-1.686h0a16.7,16.7,0,0,0-8.1-2.23,16.7,16.7,0,0,0-8.1,2.23h0a9.626,9.626,0,0,1-1.686-5.493,9.789,9.789,0,0,1,19.578,0,9.626,9.626,0,0,1-1.686,5.493Z" transform="translate(-2 -2)"/>
    </g>
  </g>
</svg>
