<svg xmlns="http://www.w3.org/2000/svg" width="21.172" height="21.172" viewBox="0 0 21.172 21.172">
  <path id="QR_code" data-name="QR code" d="M7.737,20.248H3.887a.962.962,0,0,1-.962-.962v-3.85a.962.962,0,1,0-1.925,0v3.85a2.887,2.887,0,0,0,2.887,2.887h3.85a.962.962,0,1,0,0-1.925ZM21.21,14.473a.962.962,0,0,0-.962.962v3.85a.962.962,0,0,1-.962.962h-3.85a.962.962,0,1,0,0,1.925h3.85a2.887,2.887,0,0,0,2.887-2.887v-3.85A.962.962,0,0,0,21.21,14.473ZM19.285,1h-3.85a.962.962,0,1,0,0,1.925h3.85a.962.962,0,0,1,.962.962v3.85a.962.962,0,1,0,1.925,0V3.887A2.887,2.887,0,0,0,19.285,1ZM1.962,8.7a.962.962,0,0,0,.962-.962V3.887a.962.962,0,0,1,.962-.962h3.85A.962.962,0,0,0,7.737,1H3.887A2.887,2.887,0,0,0,1,3.887v3.85a.962.962,0,0,0,.962.962Zm7.7-3.85H5.812a.962.962,0,0,0-.962.962v3.85a.962.962,0,0,0,.962.962h3.85a.962.962,0,0,0,.962-.962V5.812A.962.962,0,0,0,9.661,4.85ZM8.7,8.7H6.774V6.774H8.7Zm4.812,1.925h3.85a.962.962,0,0,0,.962-.962V5.812a.962.962,0,0,0-.962-.962h-3.85a.962.962,0,0,0-.962.962v3.85A.962.962,0,0,0,13.511,10.624Zm.962-3.85H16.4V8.7H14.473ZM9.661,12.549H5.812a.962.962,0,0,0-.962.962v3.85a.962.962,0,0,0,.962.962h3.85a.962.962,0,0,0,.962-.962v-3.85A.962.962,0,0,0,9.661,12.549ZM8.7,16.4H6.774V14.473H8.7Zm4.812-.962a.962.962,0,0,0,.962-.962.962.962,0,1,0,0-1.925h-.962a.962.962,0,0,0-.962.962v.962A.962.962,0,0,0,13.511,15.436Zm3.85-2.887a.962.962,0,0,0-.962.962V16.4a.962.962,0,1,0,0,1.925h.962a.962.962,0,0,0,.962-.962v-3.85A.962.962,0,0,0,17.36,12.549Zm-3.85,3.85a.962.962,0,1,0,.962.962A.962.962,0,0,0,13.511,16.4Z" transform="translate(-1 -1)"/>
</svg>
