<svg xmlns="http://www.w3.org/2000/svg" width="17.5" height="17.5" viewBox="0 0 17.5 17.5">
  <path id="Path_307" data-name="Path 307" d="M6.568,16.909H3.386a.8.8,0,0,1-.8-.8V12.932a.8.8,0,1,0-1.591,0v3.182A2.386,2.386,0,0,0,3.386,18.5H6.568a.8.8,0,1,0,0-1.591ZM17.7,12.136a.8.8,0,0,0-.8.8v3.182a.8.8,0,0,1-.8.8H12.932a.8.8,0,1,0,0,1.591h3.182A2.386,2.386,0,0,0,18.5,16.114V12.932A.8.8,0,0,0,17.7,12.136ZM16.114,1H12.932a.8.8,0,1,0,0,1.591h3.182a.8.8,0,0,1,.8.8V6.568a.8.8,0,1,0,1.591,0V3.386A2.386,2.386,0,0,0,16.114,1ZM1.8,7.364a.8.8,0,0,0,.8-.8V3.386a.8.8,0,0,1,.8-.8H6.568A.8.8,0,0,0,6.568,1H3.386A2.386,2.386,0,0,0,1,3.386V6.568a.8.8,0,0,0,.8.8ZM8.159,4.182H4.977a.8.8,0,0,0-.8.8V8.159a.8.8,0,0,0,.8.8H8.159a.8.8,0,0,0,.8-.8V4.977A.8.8,0,0,0,8.159,4.182Zm-.8,3.182H5.773V5.773H7.364Zm3.977,1.591h3.182a.8.8,0,0,0,.8-.8V4.977a.8.8,0,0,0-.8-.8H11.341a.8.8,0,0,0-.8.8V8.159A.8.8,0,0,0,11.341,8.955Zm.8-3.182h1.591V7.364H12.136ZM8.159,10.545H4.977a.8.8,0,0,0-.8.8v3.182a.8.8,0,0,0,.8.8H8.159a.8.8,0,0,0,.8-.8V11.341A.8.8,0,0,0,8.159,10.545Zm-.8,3.182H5.773V12.136H7.364Zm3.977-.8a.8.8,0,0,0,.8-.8.8.8,0,1,0,0-1.591h-.8a.8.8,0,0,0-.8.8v.8A.8.8,0,0,0,11.341,12.932Zm3.182-2.386a.8.8,0,0,0-.8.8v2.386a.8.8,0,1,0,0,1.591h.8a.8.8,0,0,0,.8-.8V11.341A.8.8,0,0,0,14.523,10.545Zm-3.182,3.182a.8.8,0,1,0,.8.8A.8.8,0,0,0,11.341,13.727Z" transform="translate(-1 -1)"/>
</svg>
